<?xml version="1.0" standalone="no"?>
<!DOCTYPE svg PUBLIC "-//W3C//DTD SVG 20010904//EN"
 "http://www.w3.org/TR/2001/REC-SVG-20010904/DTD/svg10.dtd">
<svg version="1.0" xmlns="http://www.w3.org/2000/svg"
 width="260.000000pt" height="260.000000pt" viewBox="0 0 260.000000 260.000000"
 preserveAspectRatio="xMidYMid meet">
<metadata>
Created by potrace 1.11, written by Peter Selinger 2001-2013
</metadata>
<g transform="translate(0.000000,260.000000) scale(0.100000,-0.100000)"
fill="#000000" stroke="none">
<path d="M1126 2589 c-549 -76 -986 -487 -1103 -1039 -25 -119 -25 -382 0
-500 58 -273 179 -493 376 -683 186 -179 393 -289 651 -344 118 -25 382 -25
500 0 258 55 465 165 651 344 197 190 318 410 376 683 25 118 25 382 0 500
-58 273 -179 493 -376 683 -185 178 -395 290 -646 342 -95 20 -332 28 -429 14z
m332 -684 c85 -20 130 -45 180 -98 60 -66 75 -107 76 -207 0 -73 -4 -92 -26
-135 -32 -61 -96 -122 -161 -154 l-47 -23 18 -31 c11 -18 36 -61 57 -97 124
-210 248 -371 306 -397 34 -16 39 -22 37 -48 -3 -28 -6 -30 -53 -33 -83 -6
-204 16 -271 48 -82 40 -119 88 -269 358 -61 111 -86 132 -155 132 l-31 0 3
-199 c4 -232 4 -233 99 -253 58 -12 59 -13 59 -45 l0 -33 -290 0 -290 0 0 34
c0 31 3 34 38 40 20 4 48 11 62 17 55 21 55 20 58 469 2 228 0 444 -3 479 -9
81 -32 107 -104 117 -50 6 -51 7 -51 40 l0 34 348 0 c271 0 361 -4 410 -15z"/>
<path d="M1137 1825 c-15 -14 -17 -46 -17 -271 l0 -254 58 0 c117 0 191 40
238 130 15 28 19 57 19 140 0 93 -3 111 -26 155 -39 76 -92 109 -183 113 -58
3 -76 1 -89 -13z"/>
</g>
</svg>
